<svg xmlns="http://www.w3.org/2000/svg" viewBox="0 0 500 860" font-family="system-ui,-apple-system,sans-serif">
  <defs>
    <radialGradient id="bg" cx="50%" cy="35%" r="55%"><stop offset="0%" stop-color="#5F42F0" stop-opacity="0.13"/><stop offset="100%" stop-color="#5F42F0" stop-opacity="0"/></radialGradient>
  </defs>
  <rect width="500" height="860" fill="#060510"/>
  <rect width="500" height="860" fill="url(#bg)"/>
  <rect x="20" y="20" width="460" height="820" rx="44" fill="#100e22" stroke="rgba(255,255,255,0.09)" stroke-width="2"/>
  <rect x="26" y="26" width="448" height="808" rx="40" fill="#060510"/>
  <rect x="172" y="28" width="156" height="30" rx="15" fill="#100e22"/>
  <text x="50" y="48" font-size="11" fill="rgba(255,255,255,0.5)">9:41</text>
  <text x="450" y="48" font-size="11" fill="rgba(255,255,255,0.4)" text-anchor="end">&#x25A6; 100%</text>
  <!-- Chat header -->
  <rect x="26" y="56" width="448" height="72" fill="rgba(6,5,16,0.9)"/>
  <circle cx="72" cy="92" r="22" fill="rgba(95,66,240,0.18)" stroke="rgba(95,66,240,0.35)" stroke-width="1.5"/>
  <text x="72" y="98" font-size="16" fill="#5F42F0" text-anchor="middle" font-weight="700">G</text>
  <text x="106" y="84" font-size="14" font-weight="700" fill="rgba(255,255,255,0.82)">GIGAMATIC AI</text>
  <text x="106" y="102" font-size="11" fill="rgba(95,66,240,0.7)">&#x2022; Active &#xB7; All context</text>
  <text x="440" y="92" font-size="11" fill="rgba(255,255,255,0.22)">&#x22EE;</text>
  <rect x="26" y="128" width="448" height="1" fill="rgba(255,255,255,0.06)"/>
  <!-- Messages -->
  <!-- AI greeting -->
  <rect x="44" y="148" width="300" height="64" rx="10" fill="rgba(95,66,240,0.1)" stroke="rgba(95,66,240,0.2)" stroke-width="1"/>
  <text x="62" y="170" font-size="12" fill="rgba(255,255,255,0.65)">Hello, Alex. Your cross-platform</text>
  <text x="62" y="188" font-size="12" fill="rgba(255,255,255,0.65)">context is active across Finance,</text>
  <text x="62" y="204" font-size="12" fill="rgba(255,255,255,0.65)">Insure, and Careers.</text>
  <!-- User message 1 -->
  <rect x="192" y="230" width="240" height="44" rx="10" fill="rgba(95,66,240,0.22)" stroke="rgba(95,66,240,0.35)" stroke-width="1"/>
  <text x="212" y="248" font-size="12" fill="rgba(255,255,255,0.82)">Am I ready to apply for</text>
  <text x="212" y="264" font-size="12" fill="rgba(255,255,255,0.82)">a mortgage?</text>
  <!-- AI response 1 -->
  <rect x="44" y="292" width="340" height="130" rx="10" fill="rgba(95,66,240,0.08)" stroke="rgba(95,66,240,0.16)" stroke-width="1"/>
  <text x="62" y="316" font-size="12" font-weight="600" fill="rgba(255,255,255,0.72)">Based on your full picture:</text>
  <text x="62" y="340" font-size="11" fill="rgba(255,255,255,0.52)">&#x2022; Income readiness: 74/100 &#x2713;</text>
  <text x="62" y="358" font-size="11" fill="rgba(255,255,255,0.52)">&#x2022; 3 lenders match your profile &#x2713;</text>
  <text x="62" y="376" font-size="11" fill="rgba(255,200,50,0.7)">&#x2022; Coverage gap may affect score</text>
  <text x="62" y="394" font-size="11" fill="rgba(255,255,255,0.52)">&#x2022; Credit history: strong &#x2713;</text>
  <text x="62" y="412" font-size="11" fill="#5F42F0" opacity="0.75">View full readiness breakdown &#x2192;</text>
  <!-- User message 2 -->
  <rect x="192" y="440" width="240" height="28" rx="8" fill="rgba(95,66,240,0.22)" stroke="rgba(95,66,240,0.35)" stroke-width="1"/>
  <text x="212" y="458" font-size="12" fill="rgba(255,255,255,0.82)">What&#x2019;s the coverage gap?</text>
  <!-- AI response 2 -->
  <rect x="44" y="486" width="340" height="100" rx="10" fill="rgba(95,66,240,0.08)" stroke="rgba(95,66,240,0.16)" stroke-width="1"/>
  <text x="62" y="508" font-size="12" fill="rgba(255,255,255,0.65)">Your Insure profile shows no income</text>
  <text x="62" y="526" font-size="12" fill="rgba(255,255,255,0.65)">protection coverage. Some lenders</text>
  <text x="62" y="544" font-size="12" fill="rgba(255,255,255,0.65)">factor this into risk scoring.</text>
  <rect x="62" y="556" width="152" height="24" rx="6" fill="rgba(95,66,240,0.18)" stroke="rgba(95,66,240,0.3)" stroke-width="1"/>
  <text x="138" y="572" font-size="11" fill="#5F42F0" text-anchor="middle">View in Insure &#x2192;</text>
  <!-- User message 3 -->
  <rect x="192" y="604" width="240" height="28" rx="8" fill="rgba(95,66,240,0.22)" stroke="rgba(95,66,240,0.35)" stroke-width="1"/>
  <text x="212" y="622" font-size="12" fill="rgba(255,255,255,0.82)">Which lenders match me?</text>
  <!-- AI typing indicator -->
  <rect x="44" y="650" width="100" height="36" rx="10" fill="rgba(95,66,240,0.08)" stroke="rgba(95,66,240,0.15)" stroke-width="1"/>
  <circle cx="70" cy="668" r="5" fill="#5F42F0" opacity="0.6"/>
  <circle cx="88" cy="668" r="5" fill="#5F42F0" opacity="0.4"/>
  <circle cx="106" cy="668" r="5" fill="#5F42F0" opacity="0.25"/>
  <!-- Context chips -->
  <rect x="44" y="700" width="412" height="24" rx="6" fill="rgba(95,66,240,0.06)"/>
  <text x="62" y="716" font-size="10" fill="#5F42F0" opacity="0.55">Reading Finance &#xB7; Insure &#xB7; Careers context...</text>
  <!-- Input bar -->
  <rect x="36" y="742" width="408" height="44" rx="8" fill="rgba(255,255,255,0.05)" stroke="rgba(255,255,255,0.08)" stroke-width="1"/>
  <text x="56" y="768" font-size="12" fill="rgba(255,255,255,0.2)">Ask anything...</text>
  <circle cx="428" cy="764" r="14" fill="#5F42F0" opacity="0.7"/>
  <!-- Bottom -->
  <rect x="26" y="804" width="448" height="30" rx="0" fill="rgba(6,5,16,0.9)"/>
  <text x="250" y="824" font-size="10" fill="rgba(255,255,255,0.12)" text-anchor="middle">GIGAMATIC AI &#xB7; Consent-first intelligence</text>
</svg>
