<svg xmlns="http://www.w3.org/2000/svg" viewBox="0 0 1600 900" font-family="system-ui,-apple-system,sans-serif">
  <!-- My Policies dashboard - dark theme -->
  <rect width="1600" height="900" fill="#0A0A0A"/>
  <rect width="1600" height="58" fill="rgba(14,14,14,0.97)"/>
  <rect y="57" width="1600" height="1" fill="rgba(255,255,255,0.06)"/>
  <text x="36" y="36" font-size="17" font-weight="800" fill="white" letter-spacing="1">GIGAMATIC</text>
  <text x="196" y="36" font-size="13" fill="rgba(255,255,255,0.38)">Home</text>
  <text x="254" y="36" font-size="13" fill="rgba(255,255,255,0.38)">Get a Quote</text>
  <text x="356" y="36" font-size="13" fill="#00C46A">My Policies</text>
  <text x="458" y="36" font-size="13" fill="rgba(255,255,255,0.38)">Learning Hub</text>
  <!-- Header -->
  <text x="80" y="116" font-size="32" font-weight="800" fill="white">My Policies</text>
  <text x="80" y="144" font-size="14" fill="rgba(255,255,255,0.4)">Your active coverage at a glance</text>
  <!-- Summary stats -->
  <rect x="80" y="164" width="340" height="90" rx="10" fill="#111111" stroke="rgba(255,255,255,0.06)" stroke-width="1"/>
  <text x="110" y="196" font-size="11" fill="rgba(255,255,255,0.3)" letter-spacing="1.5">ACTIVE POLICIES</text>
  <text x="110" y="234" font-size="40" font-weight="800" fill="white">3</text>
  <rect x="440" y="164" width="340" height="90" rx="10" fill="#111111" stroke="rgba(255,255,255,0.06)" stroke-width="1"/>
  <text x="470" y="196" font-size="11" fill="rgba(255,255,255,0.3)" letter-spacing="1.5">MONTHLY TOTAL</text>
  <text x="470" y="234" font-size="40" font-weight="800" fill="white">$287</text>
  <rect x="800" y="164" width="340" height="90" rx="10" fill="#111C14" stroke="rgba(0,196,106,0.2)" stroke-width="1"/>
  <text x="830" y="196" font-size="11" fill="rgba(0,196,106,0.6)" letter-spacing="1.5">TOTAL SAVINGS</text>
  <text x="830" y="234" font-size="40" font-weight="800" fill="#00C46A">$720</text>
  <text x="870" y="248" font-size="12" fill="rgba(255,255,255,0.3)">/year vs. old plan</text>
  <!-- Policy cards -->
  <!-- Auto policy -->
  <rect x="80" y="278" width="1480" height="130" rx="10" fill="#111111" stroke="rgba(255,255,255,0.07)" stroke-width="1"/>
  <rect x="80" y="278" width="4" height="130" fill="#00C46A" rx="2"/>
  <text x="116" y="310" font-size="11" fill="rgba(255,255,255,0.28)" letter-spacing="1.5">AUTO INSURANCE</text>
  <text x="116" y="342" font-size="20" font-weight="700" fill="white">GEICO Auto — Full Coverage</text>
  <text x="116" y="366" font-size="13" fill="rgba(255,255,255,0.45)">Policy #GEI-2026-4471289 · 2026 Honda Accord · California</text>
  <!-- Renewal date -->
  <rect x="116" y="384" width="180" height="22" rx="11" fill="rgba(255,255,255,0.06)"/>
  <text x="136" y="399" font-size="11" fill="rgba(255,255,255,0.4)">Renews: Jan 12, 2027</text>
  <text x="850" y="332" font-size="28" font-weight="800" fill="white">$94</text>
  <text x="850" y="352" font-size="12" fill="rgba(255,255,255,0.35)">/month</text>
  <text x="1050" y="332" font-size="14" fill="#00C46A" font-weight="600">✓ Active</text>
  <rect x="1350" y="298" width="180" height="36" rx="6" fill="rgba(0,196,106,0.1)" stroke="rgba(0,196,106,0.3)" stroke-width="1"/>
  <text x="1440" y="320" font-size="12" font-weight="600" fill="#00C46A" text-anchor="middle">View Details →</text>
  <rect x="1350" y="344" width="180" height="36" rx="6" fill="rgba(255,255,255,0.05)" stroke="rgba(255,255,255,0.07)" stroke-width="1"/>
  <text x="1440" y="366" font-size="12" fill="rgba(255,255,255,0.4)" text-anchor="middle">Compare Rates →</text>
  <!-- Home policy -->
  <rect x="80" y="424" width="1480" height="130" rx="10" fill="#111111" stroke="rgba(255,255,255,0.07)" stroke-width="1"/>
  <rect x="80" y="424" width="4" height="130" fill="#00C46A" rx="2"/>
  <text x="116" y="456" font-size="11" fill="rgba(255,255,255,0.28)" letter-spacing="1.5">HOME INSURANCE</text>
  <text x="116" y="488" font-size="20" font-weight="700" fill="white">State Farm Homeowners</text>
  <text x="116" y="512" font-size="13" fill="rgba(255,255,255,0.45)">Policy #STF-2025-8829104 · 1247 Maple Drive, Sacramento CA</text>
  <rect x="116" y="530" width="180" height="22" rx="11" fill="rgba(255,255,255,0.06)"/>
  <text x="136" y="545" font-size="11" fill="rgba(255,255,255,0.4)">Renews: Mar 3, 2027</text>
  <text x="850" y="478" font-size="28" font-weight="800" fill="white">$134</text>
  <text x="850" y="498" font-size="12" fill="rgba(255,255,255,0.35)">/month</text>
  <text x="1050" y="478" font-size="14" fill="#00C46A" font-weight="600">✓ Active</text>
  <rect x="1350" y="444" width="180" height="36" rx="6" fill="rgba(0,196,106,0.1)" stroke="rgba(0,196,106,0.3)" stroke-width="1"/>
  <text x="1440" y="466" font-size="12" font-weight="600" fill="#00C46A" text-anchor="middle">View Details →</text>
  <!-- Life policy -->
  <rect x="80" y="570" width="1480" height="130" rx="10" fill="#111111" stroke="rgba(255,255,255,0.07)" stroke-width="1"/>
  <rect x="80" y="570" width="4" height="130" fill="#00C46A" rx="2"/>
  <text x="116" y="602" font-size="11" fill="rgba(255,255,255,0.28)" letter-spacing="1.5">LIFE INSURANCE</text>
  <text x="116" y="634" font-size="20" font-weight="700" fill="white">Banner Life — 20-Year Term</text>
  <text x="116" y="658" font-size="13" fill="rgba(255,255,255,0.45)">Policy #BNR-2024-2203847 · $500,000 coverage · 20-year term</text>
  <rect x="116" y="676" width="210" height="22" rx="11" fill="rgba(255,255,255,0.06)"/>
  <text x="136" y="691" font-size="11" fill="rgba(255,255,255,0.4)">Renews: Oct 17, 2044</text>
  <text x="850" y="624" font-size="28" font-weight="800" fill="white">$59</text>
  <text x="850" y="644" font-size="12" fill="rgba(255,255,255,0.35)">/month</text>
  <text x="1050" y="624" font-size="14" fill="#00C46A" font-weight="600">✓ Active</text>
  <rect x="1350" y="590" width="180" height="36" rx="6" fill="rgba(0,196,106,0.1)" stroke="rgba(0,196,106,0.3)" stroke-width="1"/>
  <text x="1440" y="612" font-size="12" font-weight="600" fill="#00C46A" text-anchor="middle">View Details →</text>
  <!-- Add new policy CTA -->
  <rect x="80" y="720" width="1480" height="78" rx="10" fill="rgba(0,196,106,0.05)" stroke="rgba(0,196,106,0.15)" stroke-width="1" stroke-dasharray="6 4"/>
  <text x="700" y="760" font-size="15" fill="rgba(255,255,255,0.35)" text-anchor="middle">+ Add another policy — compare 40+ insurers across 6 categories</text>
  <rect x="1260" y="732" width="180" height="36" rx="6" fill="#00C46A"/>
  <text x="1350" y="754" font-size="13" font-weight="700" fill="#040A06" text-anchor="middle">Get a Quote →</text>
  <!-- Ask GIGI -->
  <rect x="1360" y="826" width="148" height="44" rx="22" fill="#111" stroke="rgba(255,255,255,0.1)" stroke-width="1"/>
  <circle cx="1384" cy="848" r="6" fill="#00C46A"/>
  <text x="1402" y="853" font-size="13" fill="white">Ask GIGI</text>
</svg>