<svg xmlns="http://www.w3.org/2000/svg" viewBox="0 0 1600 900" font-family="system-ui,-apple-system,sans-serif">
  <defs>
    <linearGradient id="aibg2" x1="0" y1="0" x2="1" y2="1"><stop offset="0%" stop-color="#06060F"/><stop offset="100%" stop-color="#0A071A"/></linearGradient>
    <radialGradient id="aiGlow2" cx="50%" cy="40%" r="50%"><stop offset="0%" stop-color="#7C3AED" stop-opacity="0.15"/><stop offset="100%" stop-color="#06060F" stop-opacity="0"/></radialGradient>
    <linearGradient id="ptxt" x1="0" y1="0" x2="1" y2="0"><stop offset="0%" stop-color="#818CF8"/><stop offset="100%" stop-color="#C084FC"/></linearGradient>
  </defs>
  <rect width="1600" height="900" fill="url(#aibg2)"/>
  <rect width="1600" height="900" fill="url(#aiGlow2)"/>
  <!-- Nav -->
  <rect width="1600" height="60" fill="rgba(6,6,15,0.92)"/>
  <rect y="59" width="1600" height="1" fill="rgba(255,255,255,0.05)"/>
  <text x="36" y="37" font-size="17" font-weight="800" fill="#A78BFA" letter-spacing="-0.5" font-style="italic">GIGAMATIC</text>
  <text x="185" y="37" font-size="13" fill="#A78BFA">AI Tools</text>
  <text x="250" y="37" font-size="13" fill="rgba(255,255,255,0.38)">Learn</text>
  <text x="304" y="37" font-size="13" fill="rgba(255,255,255,0.38)">Resources</text>
  <text x="386" y="37" font-size="13" fill="rgba(255,255,255,0.38)">Blog</text>
  <text x="430" y="37" font-size="13" fill="rgba(255,255,255,0.38)">Events</text>
  <text x="490" y="37" font-size="13" fill="rgba(255,255,255,0.38)">AI News</text>
  <text x="556" y="37" font-size="13" fill="rgba(255,255,255,0.38)">My Stack</text>
  <rect x="1460" y="16" width="100" height="28" rx="14" fill="rgba(124,58,237,0.2)" stroke="rgba(124,58,237,0.4)" stroke-width="1"/>
  <text x="1510" y="34" font-size="12" fill="#A78BFA" text-anchor="middle">5 in stack</text>
  <!-- Hero content -->
  <rect x="80" y="114" width="350" height="28" rx="14" fill="rgba(124,58,237,0.1)" stroke="rgba(124,58,237,0.3)" stroke-width="1"/>
  <text x="100" y="132" font-size="12" fill="rgba(167,139,250,0.8)">✦ Stanford · MIT · Google · DeepLearning.AI · Hugging Face</text>
  <text x="80" y="218" font-size="72" font-weight="800" fill="white" letter-spacing="-2">Your AI Journey</text>
  <text x="80" y="298" font-size="72" font-weight="800" letter-spacing="-2" fill="url(#ptxt)">Starts Here</text>
  <text x="80" y="354" font-size="16" fill="rgba(255,255,255,0.5)">Discover 220+ verified AI tools. Learn from top institutions.</text>
  <text x="80" y="376" font-size="16" fill="rgba(255,255,255,0.5)">Build your personal AI stack. All free.</text>
  <rect x="80" y="410" width="256" height="48" rx="8" fill="#7C3AED"/>
  <text x="208" y="440" font-size="14" font-weight="600" fill="white" text-anchor="middle">Find Your AI Tool →</text>
  <rect x="352" y="410" width="192" height="48" rx="8" fill="none" stroke="rgba(124,58,237,0.5)" stroke-width="1.5"/>
  <text x="448" y="440" font-size="14" font-weight="600" fill="#A78BFA" text-anchor="middle">Start Learning</text>
  <!-- Stats cards -->
  <rect x="80" y="490" width="148" height="80" rx="10" fill="rgba(255,255,255,0.04)" stroke="rgba(255,255,255,0.06)" stroke-width="1"/>
  <text x="154" y="534" font-size="26" font-weight="800" fill="white" text-anchor="middle">220+</text>
  <text x="154" y="555" font-size="10" fill="rgba(255,255,255,0.35)" text-anchor="middle">AI TOOLS</text>
  <rect x="244" y="490" width="148" height="80" rx="10" fill="rgba(255,255,255,0.04)" stroke="rgba(255,255,255,0.06)" stroke-width="1"/>
  <text x="318" y="534" font-size="26" font-weight="800" fill="white" text-anchor="middle">13</text>
  <text x="318" y="555" font-size="10" fill="rgba(255,255,255,0.35)" text-anchor="middle">CATEGORIES</text>
  <rect x="408" y="490" width="148" height="80" rx="10" fill="rgba(255,255,255,0.04)" stroke="rgba(255,255,255,0.06)" stroke-width="1"/>
  <text x="482" y="534" font-size="26" font-weight="800" fill="white" text-anchor="middle">45+</text>
  <text x="482" y="555" font-size="10" fill="rgba(255,255,255,0.35)" text-anchor="middle">COURSES</text>
  <rect x="572" y="490" width="148" height="80" rx="10" fill="rgba(255,255,255,0.04)" stroke="rgba(255,255,255,0.06)" stroke-width="1"/>
  <text x="646" y="534" font-size="26" font-weight="800" fill="white" text-anchor="middle">22</text>
  <text x="646" y="555" font-size="10" fill="rgba(255,255,255,0.35)" text-anchor="middle">VIDEO SERIES</text>
  <!-- Right side: featured tools section -->
  <text x="850" y="130" font-size="13" font-weight="600" fill="rgba(255,255,255,0.35)" letter-spacing="1.5">TRENDING TOOLS</text>
  <!-- Tool cards 2x3 grid -->
  <rect x="850" y="148" width="320" height="100" rx="12" fill="rgba(255,255,255,0.05)" stroke="rgba(255,255,255,0.07)" stroke-width="1"/>
  <rect x="874" y="170" width="36" height="36" rx="9" fill="rgba(99,102,241,0.3)"/>
  <text x="892" y="193" font-size="20" text-anchor="middle" fill="#818CF8">◆</text>
  <text x="924" y="183" font-size="15" font-weight="600" fill="rgba(255,255,255,0.9)">ChatGPT</text>
  <text x="924" y="201" font-size="12" fill="rgba(255,255,255,0.38)">General AI Assistant · OpenAI</text>
  <rect x="874" y="216" width="72" height="18" rx="9" fill="rgba(0,196,106,0.12)" stroke="rgba(0,196,106,0.25)" stroke-width="1"/>
  <text x="910" y="229" font-size="9" fill="#00C46A" text-anchor="middle">Freemium</text>
  <rect x="1190" y="148" width="320" height="100" rx="12" fill="rgba(255,255,255,0.05)" stroke="rgba(255,255,255,0.07)" stroke-width="1"/>
  <rect x="1214" y="170" width="36" height="36" rx="9" fill="rgba(59,130,246,0.25)"/>
  <text x="1232" y="193" font-size="20" text-anchor="middle" fill="#60A5FA">✦</text>
  <text x="1264" y="183" font-size="15" font-weight="600" fill="rgba(255,255,255,0.9)">Midjourney</text>
  <text x="1264" y="201" font-size="12" fill="rgba(255,255,255,0.38)">Image Generation</text>
  <rect x="1214" y="216" width="54" height="18" rx="9" fill="rgba(251,191,36,0.1)" stroke="rgba(251,191,36,0.3)" stroke-width="1"/>
  <text x="1241" y="229" font-size="9" fill="#FCD34D" text-anchor="middle">Paid</text>
  <rect x="850" y="264" width="320" height="100" rx="12" fill="rgba(255,255,255,0.05)" stroke="rgba(255,255,255,0.07)" stroke-width="1"/>
  <rect x="874" y="286" width="36" height="36" rx="9" fill="rgba(239,68,68,0.2)"/>
  <text x="892" y="309" font-size="20" text-anchor="middle" fill="#F87171">◈</text>
  <text x="924" y="299" font-size="15" font-weight="600" fill="rgba(255,255,255,0.9)">Claude</text>
  <text x="924" y="317" font-size="12" fill="rgba(255,255,255,0.38)">AI Assistant · Anthropic</text>
  <rect x="874" y="332" width="72" height="18" rx="9" fill="rgba(0,196,106,0.12)" stroke="rgba(0,196,106,0.25)" stroke-width="1"/>
  <text x="910" y="345" font-size="9" fill="#00C46A" text-anchor="middle">Freemium</text>
  <rect x="1190" y="264" width="320" height="100" rx="12" fill="rgba(255,255,255,0.05)" stroke="rgba(255,255,255,0.07)" stroke-width="1"/>
  <rect x="1214" y="286" width="36" height="36" rx="9" fill="rgba(16,185,129,0.2)"/>
  <text x="1232" y="309" font-size="20" text-anchor="middle" fill="#34D399">⬡</text>
  <text x="1264" y="299" font-size="15" font-weight="600" fill="rgba(255,255,255,0.9)">Perplexity</text>
  <text x="1264" y="317" font-size="12" fill="rgba(255,255,255,0.38)">AI Search Engine</text>
  <rect x="1214" y="332" width="72" height="18" rx="9" fill="rgba(0,196,106,0.12)" stroke="rgba(0,196,106,0.25)" stroke-width="1"/>
  <text x="1250" y="345" font-size="9" fill="#00C46A" text-anchor="middle">Freemium</text>
  <rect x="850" y="380" width="320" height="100" rx="12" fill="rgba(255,255,255,0.04)" stroke="rgba(255,255,255,0.05)" stroke-width="1"/>
  <text x="892" y="418" font-size="15" font-weight="600" fill="rgba(255,255,255,0.7)">Cursor</text>
  <text x="892" y="436" font-size="12" fill="rgba(255,255,255,0.3)">AI Code Editor</text>
  <rect x="1190" y="380" width="320" height="100" rx="12" fill="rgba(255,255,255,0.04)" stroke="rgba(255,255,255,0.05)" stroke-width="1"/>
  <text x="1232" y="418" font-size="15" font-weight="600" fill="rgba(255,255,255,0.7)">ElevenLabs</text>
  <text x="1232" y="436" font-size="12" fill="rgba(255,255,255,0.3)">AI Voice Generation</text>
  <!-- View all button -->
  <rect x="850" y="496" width="660" height="44" rx="8" fill="rgba(124,58,237,0.1)" stroke="rgba(124,58,237,0.3)" stroke-width="1"/>
  <text x="1180" y="523" font-size="13" font-weight="600" fill="#A78BFA" text-anchor="middle">Browse All 220+ Tools →</text>
  <!-- Bottom: Popular categories -->
  <text x="80" y="618" font-size="13" font-weight="600" fill="rgba(255,255,255,0.3)" letter-spacing="1.5">POPULAR CATEGORIES</text>
  <rect x="80" y="634" width="140" height="32" rx="16" fill="rgba(124,58,237,0.15)" stroke="rgba(124,58,237,0.3)" stroke-width="1"/>
  <text x="150" y="654" font-size="12" fill="#A78BFA" text-anchor="middle">Writing &amp; Content</text>
  <rect x="232" y="634" width="120" height="32" rx="16" fill="rgba(255,255,255,0.05)" stroke="rgba(255,255,255,0.07)" stroke-width="1"/>
  <text x="292" y="654" font-size="12" fill="rgba(255,255,255,0.4)" text-anchor="middle">Image &amp; Video</text>
  <rect x="364" y="634" width="100" height="32" rx="16" fill="rgba(255,255,255,0.05)" stroke="rgba(255,255,255,0.07)" stroke-width="1"/>
  <text x="414" y="654" font-size="12" fill="rgba(255,255,255,0.4)" text-anchor="middle">Coding</text>
  <rect x="476" y="634" width="100" height="32" rx="16" fill="rgba(255,255,255,0.05)" stroke="rgba(255,255,255,0.07)" stroke-width="1"/>
  <text x="526" y="654" font-size="12" fill="rgba(255,255,255,0.4)" text-anchor="middle">Productivity</text>
  <rect x="588" y="634" width="90" height="32" rx="16" fill="rgba(255,255,255,0.05)" stroke="rgba(255,255,255,0.07)" stroke-width="1"/>
  <text x="633" y="654" font-size="12" fill="rgba(255,255,255,0.4)" text-anchor="middle">Research</text>
  <rect x="690" y="634" width="80" height="32" rx="16" fill="rgba(255,255,255,0.05)" stroke="rgba(255,255,255,0.07)" stroke-width="1"/>
  <text x="730" y="654" font-size="12" fill="rgba(255,255,255,0.4)" text-anchor="middle">Audio</text>
  <rect x="782" y="634" width="96" height="32" rx="16" fill="rgba(255,255,255,0.05)" stroke="rgba(255,255,255,0.07)" stroke-width="1"/>
  <text x="830" y="654" font-size="12" fill="rgba(255,255,255,0.4)" text-anchor="middle">Marketing</text>
  <!-- Latest AI news -->
  <text x="80" y="714" font-size="13" font-weight="600" fill="rgba(255,255,255,0.3)" letter-spacing="1.5">LATEST AI NEWS</text>
  <rect x="80" y="728" width="1480" height="60" rx="8" fill="rgba(255,255,255,0.03)" stroke="rgba(255,255,255,0.05)" stroke-width="1"/>
  <text x="110" y="766" font-size="15" font-weight="600" fill="rgba(255,255,255,0.7)">OpenAI Releases GPT-5 — What It Can Do and What It Can't</text>
  <text x="1460" y="760" font-size="12" fill="rgba(255,255,255,0.25)" text-anchor="end">2 hours ago</text>
  <text x="1460" y="778" font-size="12" fill="#A78BFA" text-anchor="end">Read →</text>
  <!-- Ask GIGI -->
  <rect x="1360" y="822" width="148" height="44" rx="22" fill="rgba(10,10,20,0.9)" stroke="rgba(124,58,237,0.4)" stroke-width="1"/>
  <circle cx="1384" cy="844" r="6" fill="#00C46A"/>
  <text x="1402" y="849" font-size="13" fill="white">Ask GIGI</text>
</svg>