<svg xmlns="http://www.w3.org/2000/svg" viewBox="0 0 1600 900" font-family="system-ui,-apple-system,sans-serif">
  <defs>
    <radialGradient id="g1" cx="30%" cy="55%" r="40%"><stop offset="0%" stop-color="#00C46A" stop-opacity="0.07"/><stop offset="100%" stop-color="#00C46A" stop-opacity="0"/></radialGradient>
  </defs>
  <rect width="1600" height="900" fill="#0A0A0A"/>
  <rect width="1600" height="900" fill="url(#g1)"/>
  <rect width="1600" height="58" fill="rgba(18,18,18,0.96)"/>
  <rect y="57" width="1600" height="1" fill="rgba(255,255,255,0.06)"/>
  <text x="36" y="36" font-size="18" font-weight="800" fill="white" letter-spacing="1">GIGAMATIC</text>
  <text x="200" y="37" font-size="13" fill="rgba(255,255,255,0.65)">Home</text>
  <text x="268" y="37" font-size="13" fill="rgba(255,255,255,0.38)">Get a Quote</text>
  <text x="374" y="37" font-size="13" fill="rgba(255,255,255,0.38)">My Policies</text>
  <text x="474" y="37" font-size="13" fill="rgba(255,255,255,0.38)">Learning Hub</text>
  <text x="578" y="37" font-size="13" fill="rgba(255,255,255,0.38)">Tools</text>
  <rect x="1470" y="15" width="96" height="28" rx="14" fill="rgba(255,255,255,0.07)" stroke="rgba(255,255,255,0.1)" stroke-width="1"/>
  <text x="1518" y="33" font-size="12" fill="rgba(255,255,255,0.6)" text-anchor="middle">Sign In</text>
  <rect x="80" y="118" width="218" height="28" rx="14" fill="rgba(0,196,106,0.1)" stroke="rgba(0,196,106,0.3)" stroke-width="1"/>
  <circle cx="100" cy="132" r="4" fill="#00C46A"/>
  <text x="114" y="137" font-size="12" fill="rgba(255,255,255,0.55)">Independent Marketplace · 40+ Carriers</text>
  <text x="80" y="250" font-size="84" font-weight="800" fill="white" letter-spacing="-2.5">Insurance,</text>
  <text x="80" y="346" font-size="84" font-weight="800" fill="#00C46A" letter-spacing="-2.5">Simplified.</text>
  <text x="80" y="410" font-size="17" fill="rgba(255,255,255,0.5)">Compare quotes from 40+ top-rated insurers in under 5 minutes.</text>
  <text x="80" y="434" font-size="17" fill="rgba(255,255,255,0.5)">No paperwork. No hassle. Just better rates.</text>
  <rect x="80" y="468" width="216" height="50" rx="8" fill="#00C46A"/>
  <text x="188" y="499" font-size="15" font-weight="700" fill="#040A06" text-anchor="middle">Get Free Quotes →</text>
  <text x="328" y="497" font-size="14" fill="rgba(255,255,255,0.45)">How It Works →</text>
  <rect x="80" y="550" width="620" height="1" fill="rgba(255,255,255,0.06)"/>
  <text x="80" y="592" font-size="32" font-weight="800" fill="white">40+</text>
  <text x="80" y="614" font-size="11" fill="rgba(255,255,255,0.3)" letter-spacing="1.5">TOP INSURERS</text>
  <text x="240" y="592" font-size="32" font-weight="800" fill="white">2M+</text>
  <text x="240" y="614" font-size="11" fill="rgba(255,255,255,0.3)" letter-spacing="1.5">QUOTES COMPARED</text>
  <text x="420" y="592" font-size="32" font-weight="800" fill="white">$720</text>
  <text x="420" y="614" font-size="11" fill="rgba(255,255,255,0.3)" letter-spacing="1.5">AVG. SAVINGS/YEAR</text>
  <text x="80" y="664" font-size="13" fill="rgba(255,255,255,0.28)">🔒 Secure &amp; encrypted</text>
  <text x="258" y="664" font-size="13" fill="rgba(255,255,255,0.28)">✓ 100% Free</text>
  <text x="376" y="664" font-size="13" fill="rgba(255,255,255,0.28)">⏱ Under 5 minutes</text>
  <!-- Quote widget -->
  <rect x="880" y="88" width="636" height="630" rx="16" fill="#121212" stroke="rgba(255,255,255,0.07)" stroke-width="1"/>
  <circle cx="920" cy="140" r="5" fill="#00C46A"/>
  <text x="934" y="145" font-size="11" fill="rgba(255,255,255,0.38)" letter-spacing="1.5">LIVE RATES</text>
  <text x="918" y="184" font-size="24" font-weight="700" fill="white">Get Your Free Quote</text>
  <text x="918" y="208" font-size="13" fill="rgba(255,255,255,0.38)">Compare 40+ insurers in under 5 minutes</text>
  <rect x="918" y="228" width="558" height="50" rx="8" fill="#1C1C1C" stroke="rgba(255,255,255,0.08)" stroke-width="1"/>
  <text x="942" y="259" font-size="14" fill="rgba(255,255,255,0.65)">Auto Insurance</text>
  <text x="1450" y="258" font-size="18" fill="rgba(255,255,255,0.35)" text-anchor="end">⌄</text>
  <rect x="918" y="294" width="558" height="52" rx="8" fill="#00C46A"/>
  <text x="1197" y="326" font-size="15" font-weight="700" fill="#040A06" text-anchor="middle">Compare Quotes →</text>
  <text x="952" y="372" font-size="12" fill="rgba(255,255,255,0.28)">🔒 Secure</text>
  <text x="1082" y="372" font-size="12" fill="rgba(255,255,255,0.28)">✓ Free</text>
  <text x="1160" y="372" font-size="12" fill="rgba(255,255,255,0.28)">⏱ 5 min</text>
  <line x1="918" y1="398" x2="1476" y2="398" stroke="rgba(255,255,255,0.05)" stroke-width="1"/>
  <text x="918" y="430" font-size="10" fill="rgba(255,255,255,0.22)" letter-spacing="1.5">INSURANCE CATEGORIES</text>
  <rect x="918" y="442" width="88" height="28" rx="14" fill="rgba(0,196,106,0.12)" stroke="rgba(0,196,106,0.35)" stroke-width="1"/>
  <text x="962" y="460" font-size="12" fill="#00C46A" text-anchor="middle">Auto</text>
  <rect x="1016" y="442" width="88" height="28" rx="14" fill="rgba(255,255,255,0.04)" stroke="rgba(255,255,255,0.07)" stroke-width="1"/>
  <text x="1060" y="460" font-size="12" fill="rgba(255,255,255,0.4)" text-anchor="middle">Home</text>
  <rect x="1114" y="442" width="72" height="28" rx="14" fill="rgba(255,255,255,0.04)" stroke="rgba(255,255,255,0.07)" stroke-width="1"/>
  <text x="1150" y="460" font-size="12" fill="rgba(255,255,255,0.4)" text-anchor="middle">Life</text>
  <rect x="1196" y="442" width="84" height="28" rx="14" fill="rgba(255,255,255,0.04)" stroke="rgba(255,255,255,0.07)" stroke-width="1"/>
  <text x="1238" y="460" font-size="12" fill="rgba(255,255,255,0.4)" text-anchor="middle">Health</text>
  <rect x="1290" y="442" width="100" height="28" rx="14" fill="rgba(255,255,255,0.04)" stroke="rgba(255,255,255,0.07)" stroke-width="1"/>
  <text x="1340" y="460" font-size="12" fill="rgba(255,255,255,0.4)" text-anchor="middle">Business</text>
  <text x="918" y="514" font-size="10" fill="rgba(255,255,255,0.2)" letter-spacing="1.5">TRUSTED CARRIERS</text>
  <rect x="918" y="526" width="88" height="36" rx="6" fill="rgba(255,255,255,0.04)" stroke="rgba(255,255,255,0.05)" stroke-width="1"/>
  <text x="962" y="549" font-size="10" fill="rgba(255,255,255,0.24)" text-anchor="middle">Allstate</text>
  <rect x="1016" y="526" width="88" height="36" rx="6" fill="rgba(255,255,255,0.04)" stroke="rgba(255,255,255,0.05)" stroke-width="1"/>
  <text x="1060" y="549" font-size="10" fill="rgba(255,255,255,0.24)" text-anchor="middle">GEICO</text>
  <rect x="1114" y="526" width="88" height="36" rx="6" fill="rgba(255,255,255,0.04)" stroke="rgba(255,255,255,0.05)" stroke-width="1"/>
  <text x="1158" y="549" font-size="10" fill="rgba(255,255,255,0.24)" text-anchor="middle">State Farm</text>
  <rect x="1212" y="526" width="88" height="36" rx="6" fill="rgba(255,255,255,0.04)" stroke="rgba(255,255,255,0.05)" stroke-width="1"/>
  <text x="1256" y="549" font-size="10" fill="rgba(255,255,255,0.24)" text-anchor="middle">Progressive</text>
  <rect x="1310" y="526" width="124" height="36" rx="6" fill="rgba(255,255,255,0.04)" stroke="rgba(255,255,255,0.05)" stroke-width="1"/>
  <text x="1372" y="549" font-size="10" fill="rgba(255,255,255,0.24)" text-anchor="middle">Liberty Mutual</text>
  <rect x="1362" y="822" width="144" height="42" rx="21" fill="#111" stroke="rgba(255,255,255,0.1)" stroke-width="1"/>
  <circle cx="1386" cy="843" r="6" fill="#00C46A"/>
  <text x="1400" y="848" font-size="13" fill="white">Ask GIGI</text>
</svg>