<svg xmlns="http://www.w3.org/2000/svg" width="1200" height="650" viewBox="0 0 1200 650">
  <defs>
    <linearGradient id="bg" x1="0%" y1="0%" x2="100%" y2="100%">
      <stop offset="0%" stop-color="#070612"/>
      <stop offset="100%" stop-color="#0a0f1e"/>
    </linearGradient>
    <linearGradient id="map" x1="0%" y1="0%" x2="100%" y2="100%">
      <stop offset="0%" stop-color="#0c1828"/>
      <stop offset="100%" stop-color="#091220"/>
    </linearGradient>
    <linearGradient id="card" x1="0%" y1="0%" x2="100%" y2="100%">
      <stop offset="0%" stop-color="#13B5EC" stop-opacity="0.12"/>
      <stop offset="100%" stop-color="#40d0ff" stop-opacity="0.04"/>
    </linearGradient>
  </defs>

  <!-- Background -->
  <rect width="1200" height="650" fill="url(#bg)"/>

  <!-- Map background (right side) -->
  <rect x="520" y="0" width="680" height="650" fill="url(#map)"/>

  <!-- Map grid -->
  <line x1="520" y1="80" x2="1200" y2="80" stroke="rgba(255,255,255,0.04)" stroke-width="1"/>
  <line x1="520" y1="160" x2="1200" y2="160" stroke="rgba(255,255,255,0.04)" stroke-width="1"/>
  <line x1="520" y1="240" x2="1200" y2="240" stroke="rgba(255,255,255,0.04)" stroke-width="1"/>
  <line x1="520" y1="320" x2="1200" y2="320" stroke="rgba(255,255,255,0.04)" stroke-width="1"/>
  <line x1="520" y1="400" x2="1200" y2="400" stroke="rgba(255,255,255,0.04)" stroke-width="1"/>
  <line x1="520" y1="480" x2="1200" y2="480" stroke="rgba(255,255,255,0.04)" stroke-width="1"/>
  <line x1="520" y1="560" x2="1200" y2="560" stroke="rgba(255,255,255,0.04)" stroke-width="1"/>
  <line x1="600" y1="0" x2="600" y2="650" stroke="rgba(255,255,255,0.03)" stroke-width="1"/>
  <line x1="700" y1="0" x2="700" y2="650" stroke="rgba(255,255,255,0.03)" stroke-width="1"/>
  <line x1="800" y1="0" x2="800" y2="650" stroke="rgba(255,255,255,0.03)" stroke-width="1"/>
  <line x1="900" y1="0" x2="900" y2="650" stroke="rgba(255,255,255,0.03)" stroke-width="1"/>
  <line x1="1000" y1="0" x2="1000" y2="650" stroke="rgba(255,255,255,0.03)" stroke-width="1"/>
  <line x1="1100" y1="0" x2="1100" y2="650" stroke="rgba(255,255,255,0.03)" stroke-width="1"/>

  <!-- Map roads -->
  <line x1="520" y1="325" x2="1200" y2="325" stroke="rgba(19,181,236,0.1)" stroke-width="3"/>
  <line x1="860" y1="0" x2="860" y2="650" stroke="rgba(19,181,236,0.1)" stroke-width="2"/>
  <line x1="520" y1="200" x2="1200" y2="200" stroke="rgba(19,181,236,0.06)" stroke-width="2"/>
  <line x1="520" y1="480" x2="1200" y2="480" stroke="rgba(19,181,236,0.06)" stroke-width="2"/>
  <line x1="720" y1="0" x2="720" y2="650" stroke="rgba(19,181,236,0.06)" stroke-width="2"/>
  <line x1="1020" y1="0" x2="1020" y2="650" stroke="rgba(19,181,236,0.06)" stroke-width="2"/>

  <!-- User location -->
  <circle cx="860" cy="325" r="24" fill="rgba(19,181,236,0.15)" stroke="rgba(19,181,236,0.4)" stroke-width="1"/>
  <circle cx="860" cy="325" r="10" fill="#13B5EC"/>
  <circle cx="860" cy="325" r="5" fill="white"/>

  <!-- Radius ring -->
  <circle cx="860" cy="325" r="130" fill="none" stroke="rgba(19,181,236,0.12)" stroke-width="1" stroke-dasharray="6,4"/>

  <!-- Place markers -->
  <!-- Ramen -->
  <rect x="730" y="240" width="36" height="36" rx="8" fill="#13B5EC"/>
  <text x="748" y="262" font-family="system-ui,sans-serif" font-size="16" text-anchor="middle">🍜</text>
  <!-- Museum -->
  <rect x="940" y="190" width="36" height="36" rx="8" fill="rgba(19,181,236,0.6)"/>
  <text x="958" y="212" font-family="system-ui,sans-serif" font-size="16" text-anchor="middle">🏛</text>
  <!-- Garden -->
  <rect x="780" y="390" width="36" height="36" rx="8" fill="rgba(19,181,236,0.6)"/>
  <text x="798" y="412" font-family="system-ui,sans-serif" font-size="16" text-anchor="middle">🌿</text>
  <!-- Sake bar -->
  <rect x="960" y="360" width="36" height="36" rx="8" fill="rgba(19,181,236,0.4)"/>
  <text x="978" y="382" font-family="system-ui,sans-serif" font-size="16" text-anchor="middle">🍶</text>
  <!-- Coffee -->
  <rect x="670" y="310" width="36" height="36" rx="8" fill="rgba(19,181,236,0.35)"/>
  <text x="688" y="332" font-family="system-ui,sans-serif" font-size="16" text-anchor="middle">☕</text>

  <!-- Distance lines to markers -->
  <line x1="860" y1="325" x2="748" y2="258" stroke="rgba(19,181,236,0.2)" stroke-width="1" stroke-dasharray="4,3"/>
  <line x1="860" y1="325" x2="958" y2="208" stroke="rgba(19,181,236,0.15)" stroke-width="1" stroke-dasharray="4,3"/>
  <line x1="860" y1="325" x2="798" y2="408" stroke="rgba(19,181,236,0.15)" stroke-width="1" stroke-dasharray="4,3"/>

  <!-- Left panel -->
  <!-- Header -->
  <rect x="0" y="0" width="520" height="70" fill="rgba(255,255,255,0.02)" stroke="rgba(255,255,255,0.05)" stroke-width="1"/>
  <text x="24" y="32" font-family="system-ui,sans-serif" font-size="14" fill="rgba(255,255,255,0.5)">‹ Back</text>
  <text x="260" y="36" font-family="system-ui,sans-serif" font-size="17" fill="white" font-weight="700" text-anchor="middle">Nearby</text>
  <text x="260" y="56" font-family="system-ui,sans-serif" font-size="11" fill="rgba(255,255,255,0.4)" text-anchor="middle">Shinjuku · Walking distance</text>

  <!-- Filter tabs -->
  <rect x="0" y="70" width="520" height="50" fill="rgba(255,255,255,0.015)"/>
  <rect x="16" y="82" width="66" height="26" rx="13" fill="#13B5EC"/>
  <text x="49" y="99" font-family="system-ui,sans-serif" font-size="12" fill="white" text-anchor="middle" font-weight="600">All</text>
  <rect x="90" y="82" width="62" height="26" rx="13" fill="rgba(255,255,255,0.05)" stroke="rgba(255,255,255,0.07)" stroke-width="1"/>
  <text x="121" y="99" font-family="system-ui,sans-serif" font-size="12" fill="rgba(255,255,255,0.5)" text-anchor="middle">Food</text>
  <rect x="160" y="82" width="64" height="26" rx="13" fill="rgba(255,255,255,0.05)" stroke="rgba(255,255,255,0.07)" stroke-width="1"/>
  <text x="192" y="99" font-family="system-ui,sans-serif" font-size="12" fill="rgba(255,255,255,0.5)" text-anchor="middle">Culture</text>
  <rect x="232" y="82" width="60" height="26" rx="13" fill="rgba(255,255,255,0.05)" stroke="rgba(255,255,255,0.07)" stroke-width="1"/>
  <text x="262" y="99" font-family="system-ui,sans-serif" font-size="12" fill="rgba(255,255,255,0.5)" text-anchor="middle">Nature</text>
  <rect x="300" y="82" width="62" height="26" rx="13" fill="rgba(255,255,255,0.05)" stroke="rgba(255,255,255,0.07)" stroke-width="1"/>
  <text x="331" y="99" font-family="system-ui,sans-serif" font-size="12" fill="rgba(255,255,255,0.5)" text-anchor="middle">Drinks</text>

  <!-- Active card - highlighted -->
  <rect x="16" y="136" width="488" height="100" rx="10" fill="url(#card)" stroke="rgba(19,181,236,0.3)" stroke-width="1"/>
  <rect x="16" y="136" width="4" height="100" rx="2" fill="#13B5EC"/>
  <rect x="28" y="148" width="64" height="64" rx="8" fill="rgba(19,181,236,0.2)"/>
  <text x="60" y="190" font-family="system-ui,sans-serif" font-size="28" text-anchor="middle">🍜</text>
  <text x="106" y="164" font-family="system-ui,sans-serif" font-size="14" fill="white" font-weight="600">Fuunji Tsukemen</text>
  <text x="106" y="182" font-family="system-ui,sans-serif" font-size="12" fill="rgba(255,255,255,0.5)">Ramen · 4.8 ★ · 320 reviews</text>
  <text x="106" y="200" font-family="system-ui,sans-serif" font-size="11" fill="#13B5EC">7 min walk · Open now · ¥950</text>
  <rect x="376" y="154" width="112" height="30" rx="8" fill="rgba(19,181,236,0.2)" stroke="rgba(19,181,236,0.3)" stroke-width="1"/>
  <text x="432" y="173" font-family="system-ui,sans-serif" font-size="12" fill="#13B5EC" text-anchor="middle">Add to Day 3</text>
  <text x="106" y="222" font-family="system-ui,sans-serif" font-size="11" fill="rgba(255,255,255,0.35)">Legendary tsukemen, long queue at lunch</text>

  <!-- Card 2 -->
  <rect x="16" y="250" width="488" height="88" rx="10" fill="rgba(255,255,255,0.02)" stroke="rgba(255,255,255,0.07)" stroke-width="1"/>
  <rect x="28" y="262" width="56" height="56" rx="8" fill="rgba(19,181,236,0.1)"/>
  <text x="56" y="298" font-family="system-ui,sans-serif" font-size="28" text-anchor="middle">🏛</text>
  <text x="100" y="278" font-family="system-ui,sans-serif" font-size="14" fill="white" font-weight="600">Tokyo Metropolitan Museum</text>
  <text x="100" y="296" font-family="system-ui,sans-serif" font-size="12" fill="rgba(255,255,255,0.5)">Museum · 4.6 ★ · 12 min walk</text>
  <text x="100" y="314" font-family="system-ui,sans-serif" font-size="11" fill="rgba(19,181,236,0.7)">Open 9AM–5PM · ¥1,600 entry</text>
  <rect x="376" y="266" width="112" height="30" rx="8" fill="rgba(255,255,255,0.04)" stroke="rgba(255,255,255,0.08)" stroke-width="1"/>
  <text x="432" y="285" font-family="system-ui,sans-serif" font-size="12" fill="rgba(255,255,255,0.5)" text-anchor="middle">Add to plan</text>

  <!-- Card 3 -->
  <rect x="16" y="352" width="488" height="88" rx="10" fill="rgba(255,255,255,0.02)" stroke="rgba(255,255,255,0.07)" stroke-width="1"/>
  <rect x="28" y="364" width="56" height="56" rx="8" fill="rgba(19,181,236,0.1)"/>
  <text x="56" y="400" font-family="system-ui,sans-serif" font-size="28" text-anchor="middle">🌿</text>
  <text x="100" y="380" font-family="system-ui,sans-serif" font-size="14" fill="white" font-weight="600">Shinjuku Gyoen Garden</text>
  <text x="100" y="398" font-family="system-ui,sans-serif" font-size="12" fill="rgba(255,255,255,0.5)">Park · 4.9 ★ · 5 min walk</text>
  <text x="100" y="416" font-family="system-ui,sans-serif" font-size="11" fill="rgba(19,181,236,0.7)">Open 9AM–4:30PM · ¥500 entry</text>
  <rect x="376" y="368" width="112" height="30" rx="8" fill="rgba(255,255,255,0.04)" stroke="rgba(255,255,255,0.08)" stroke-width="1"/>
  <text x="432" y="387" font-family="system-ui,sans-serif" font-size="12" fill="rgba(255,255,255,0.5)" text-anchor="middle">Add to plan</text>

  <!-- Card 4 -->
  <rect x="16" y="454" width="488" height="88" rx="10" fill="rgba(255,255,255,0.02)" stroke="rgba(255,255,255,0.07)" stroke-width="1"/>
  <rect x="28" y="466" width="56" height="56" rx="8" fill="rgba(19,181,236,0.1)"/>
  <text x="56" y="502" font-family="system-ui,sans-serif" font-size="28" text-anchor="middle">🍶</text>
  <text x="100" y="482" font-family="system-ui,sans-serif" font-size="14" fill="white" font-weight="600">Nishi-Shinjuku Sake Bar</text>
  <text x="100" y="500" font-family="system-ui,sans-serif" font-size="12" fill="rgba(255,255,255,0.5)">Bar · 4.7 ★ · 9 min walk</text>
  <text x="100" y="518" font-family="system-ui,sans-serif" font-size="11" fill="rgba(19,181,236,0.7)">Opens 5PM · Great evening spot</text>
  <rect x="376" y="470" width="112" height="30" rx="8" fill="rgba(255,255,255,0.04)" stroke="rgba(255,255,255,0.08)" stroke-width="1"/>
  <text x="432" y="489" font-family="system-ui,sans-serif" font-size="12" fill="rgba(255,255,255,0.5)" text-anchor="middle">Add to plan</text>

  <!-- AI suggestion strip -->
  <rect x="16" y="556" width="488" height="74" rx="10" fill="rgba(19,181,236,0.06)" stroke="rgba(19,181,236,0.15)" stroke-width="1"/>
  <circle cx="44" cy="593" r="14" fill="rgba(19,181,236,0.2)"/>
  <text x="44" y="598" font-family="system-ui,sans-serif" font-size="14" text-anchor="middle">✦</text>
  <text x="68" y="585" font-family="system-ui,sans-serif" font-size="12" fill="white" font-weight="600">Hudson suggests</text>
  <text x="68" y="603" font-family="system-ui,sans-serif" font-size="11" fill="rgba(255,255,255,0.5)">Add Fuunji for lunch + Gyoen for afternoon —</text>
  <text x="68" y="619" font-family="system-ui,sans-serif" font-size="11" fill="rgba(255,255,255,0.5)">perfect local half-day within budget.</text>
</svg>
